<svg id="Layer_1" xmlns="http://www.w3.org/2000/svg" x="0px" y="0px" width="38" height="38" viewBox="0 0 2048 2048">
	<path fill="#ffffff" d="M917.7 2039c-309.5-55.2-508-235.3-585.8-521.3-93.6-343.7 103-621.6 332-710.4 163-63 446.6-18.2 544.3 73.8-264-43.5-535.3-25-664.3 143-128.7 167.6-109.4 553.5 50.7 682.7v-212.2l46-46 4.6 295.2 4.6-295.2 9.2 9.2 101.5 55.4c-1.4 60-12.4 284.7 13.8 309v-507.4l64.6-64.6 9.2 599.7h4.6V1250l170.7 97v516.7l18.5-4.6v-585.8c0-63.2-12-160.7 9.2-207.6l133.8-87.6 13.8 830.3 13.8-821 189 133.8 9.2 516.7c37.5-84.3 95.7-153.3 120-258.3 23.5-102 15.4-237.6-9.2-327.5-97.4-356-470.7-416.4-724.2-613.5-49.6-38.6-103.6-81.3-129.2-143H664c30.5 198.7 276 333.4 452 387.5v4.6C686 692.8 553.5 427.6 558 0c60.6 33.6 107.5 101 170.7 138.4 113.2 67.2 256.8 102.3 350.6 189 36.6 34 73.2 78.8 92.3 129.2l23 92.3 143 78.4C1489.5 722.5 1638 841 1702 1024c174.2 499.5-276.5 1105.4-784.2 1015zm-221.4-341.4l-27.7-13.8 9.2 41.5 13.8 4.6h4.6v-32.3zm0-73.8l-27.7-13.8v37l27.7 13.8v-37zm0-87.6l-9.2-41.5-18.4-9.2v37l27.7 14zm46 55.4l-27.7-13.8c-.2 21-.6 27.2 9.2 37l18.4 13.8v-37zm0-64.6l-27.7-13.8c-.2 21-.6 27.2 9.2 37l18.4 13.8v-37zm198.4-97l-50.7-23v64.6l50.7 27.7V1430zm-9.2-106l-41.5-18.5c-1 29.7.7 56.4 9.2 73.8l37 18.5h4.6c1-29.7-.7-56.4-9.2-73.8zm78.4 235.3l-55.4-27.7v64.6l55.4 27.7v-64.6zm221.4-415.2l64.6 37v-92.3l-64.6-32.3v87.6zm55.4 69.2l-55.4-27.7v87.7l64.6 37c1.3-35 1.3-75-9.2-97zm97 299.8l-64.6-32.3c-1.7 28.7-4.7 73.3 9.2 87.7l55.4 32.3V1513zm0-244.5l-64.6-32.3v87.7l64.6 37v-92.3z"/>
</svg>