<svg xmlns="http://www.w3.org/2000/svg" viewBox="0 0 512 512"  xmlns:v="https://vecta.io/nano"><path d="M256 160a96 96 0 0 0-96 96 96 96 0 0 0 96 96 96 96 0 0 0 96-96 96 96 0 0 0-96-96zm246.4 80.5l-94.7-47.3 33.5-100.4c4.5-13.6-8.4-26.5-22-22L319 104.4 271.5 9.6c-6.4-12.8-24.6-12.8-31 0l-47.3 94.7L92.7 70.8c-13.6-4.5-26.5 8.4-22 22L104.3 193 9.6 240.5c-12.8 6.4-12.8 24.6 0 31l94.7 47.3-33.5 100.5c-4.5 13.6 8.4 26.5 22 22L193 407.7l47.3 94.7c6.4 12.8 24.6 12.8 31 0l47.3-94.7L419 441.2c13.6 4.5 26.5-8.4 22-22L407.5 319l94.7-47.3c13-6.5 13-24.7.2-31zm-156 106a128 128 0 0 1-181 0 128 128 0 0 1 0-181 128 128 0 0 1 181 0 128 128 0 0 1 0 181z"/></svg>