<svg xmlns="http://www.w3.org/2000/svg" viewBox="0 0 640 512"  xmlns:v="https://vecta.io/nano"><path d="M575.2 325.7c.2-2 .8-3.7.8-5.6a64 64 0 0 0-98.1-54 112 112 0 0 0-213.9 46c0 3 .7 5.8 1 8.7-49.6 3.7-89 44.7-89 95.3a96 96 0 0 0 96 96h272a96 96 0 0 0 96-96c0-42-27.2-77.4-64.8-90.4zM144.8 303a112 112 0 0 1 0-158.3 112 112 0 0 1 158.4 0 111 111 0 0 1 22.3 32.7c9.8-3.7 20-6 30.7-7.5L386 81c4-12-7.3-23-19.2-19.2L279 91.2 237.5 8.4c-5.5-11.2-21.5-11.2-27 0L169 91.2 81 62C69.3 58 58 69.3 62 81L91.2 169 8.4 210.4c-11.2 5.6-11.2 21.5 0 27L91.2 279 62 366.7c-4 12 7.3 23 19.2 19.2l76-25.3a129 129 0 0 1 23.6-33.5c-13-5.4-25.4-13.4-36-24zM140 224a84 84 0 0 0 67.9 82.3c8-4.7 16.3-8.8 25.2-11.7a144 144 0 0 1 67.4-105A84 84 0 0 0 140 223.9z"/></svg>