<svg xmlns="http://www.w3.org/2000/svg" viewBox="0 0 576 512"  xmlns:v="https://vecta.io/nano"><path d="M510.5 225.5A80 80 0 0 0 432 160a79 79 0 0 0-34.3 8c-17.4-24-45.6-40-77.7-40a96 96 0 0 0-96 96c0 .5.2 1 .2 1.6A80 80 0 0 0 240 384h256a80 80 0 0 0 80-80 80 80 0 0 0-65.5-78.5zM124 260c-37.4-37.4-37.4-98.3 0-135.8a96 96 0 0 1 126.7-7.4A127 127 0 0 1 320 96c.7 0 1.3.2 2 .2l9-26.7a13 13 0 0 0-16.5-16.4l-75.3 25-35.5-71a13 13 0 0 0-23.3 0l-35.5 71-75.3-25a13 13 0 0 0-16.4 16.5l25 75.3-71 35.5a13 13 0 0 0 0 23.3l71 35.5-25 75.3c-3.4 10.2 6.3 19.8 16.5 16.5l59.2-19.7-.7-7.2c0-12.5 2.3-24.5 6.2-36L124 260zm69.8-58c4.3-24.5 15.8-46.4 32-64A63 63 0 0 0 192 128a64 64 0 0 0-64 64c0 18.7 8.2 35.4 21 47a112 112 0 0 1 44.8-37.2zM524.5 418a16 16 0 0 0-21.8 6L466 488a16 16 0 0 0 6 21.8c2.5 1.4 5.2 2 8 2a16 16 0 0 0 13.9-8.1l36.6-64a16 16 0 0 0-6-21.8zm-96 0a16 16 0 0 0-21.8 6L370 488a16 16 0 0 0 6 21.8c2.5 1.4 5.2 2 8 2a16 16 0 0 0 13.9-8.1l36.6-64a16 16 0 0 0-6-21.8zm-96 0a16 16 0 0 0-21.8 6L274 488a16 16 0 0 0 6 21.8c2.5 1.4 5.2 2 8 2a16 16 0 0 0 13.9-8.1l36.6-64a16 16 0 0 0-6-21.8zm-96 0a16 16 0 0 0-21.8 6L178 488a16 16 0 0 0 6 21.8c2.5 1.4 5.2 2 8 2a16 16 0 0 0 13.9-8.1l36.6-64a16 16 0 0 0-6-21.8z"/></svg>