<svg xmlns="http://www.w3.org/2000/svg" viewBox="0 0 448 512"  xmlns:v="https://vecta.io/nano"><path d="M440.3 345.2l-33.8-19.5 26-7c8.2-2.2 13-10.7 11-19l-4-15c-2.2-8.2-10.7-13-19-11l-70.8 19-64-37 63.8-37 70.8 19c8.2 2.2 16.7-2.7 19-11l4-15c2.2-8.2-2.7-16.7-11-19l-26-7 33.8-19.5c7.4-4.3 10-13.7 5.7-21L430.4 119c-4.3-7.4-13.7-10-21-5.7l-33.8 19.5 7-26c2.2-8.2-2.7-16.7-11-19l-15-4c-8.2-2.2-16.7 2.7-19 11l-19 70.8-62.8 36.2v-77.5l53.7-53.7a16 16 0 0 0 0-22.6l-11.3-11.3a16 16 0 0 0-22.6 0L256 56.4V16a16 16 0 0 0-16-16h-32a16 16 0 0 0-16 16v40.4l-19.7-19.7a16 16 0 0 0-22.6 0L138.3 48c-6.3 6.2-6.3 16.4 0 22.6l53.7 53.7v77.5l-62.8-36.2-19-70.8c-2.2-8.2-10.7-13-19-11l-15 4c-8.2 2.2-13 10.7-11 19l7 26-33.8-19.5c-7.4-4.3-16.8-1.7-21 5.7L2 145.7c-4.3 7.4-1.7 16.8 5.7 21l33.8 19.5-26 7c-8.3 2.2-13.2 10.7-11 19l4 15c2.2 8.2 10.7 13 19 11l70.8-19 63.8 37-63.8 37-70.8-19c-8.2-2.2-16.7 2.7-19 11l-4 15c-2.2 8.2 2.7 16.7 11 19l26 7-33.8 19.6c-7.4 4.3-10 13.7-5.7 21L17.5 393c4.3 7.4 13.7 10 21 5.7l33.8-19.5-7 26c-2.2 8.2 2.7 16.7 11 19l15 4c8.2 2.2 16.7-2.7 19-11l19-70.8 62.8-36.2v77.5l-53.7 53.7c-6.3 6.2-6.3 16.4 0 22.6l11.3 11.3a16 16 0 0 0 22.6 0l19.7-19.7V496a16 16 0 0 0 16 16h32a16 16 0 0 0 16-16v-40.4l19.7 19.7a16 16 0 0 0 22.6 0l11.3-11.3a16 16 0 0 0 0-22.6L256 387.7v-77.5l62.8 36.2 19 70.8c2.2 8.2 10.7 13 19 11l15-4c8.2-2.2 13-10.7 11-19l-7-26 33.8 19.5c7.4 4.3 16.8 1.7 21-5.7l15.5-26.8c4.3-7.3 1.8-16.8-5.6-21z"/></svg>