<svg xmlns="http://www.w3.org/2000/svg" viewBox="0 0 640 512"  xmlns:v="https://vecta.io/nano"><path d="M624 368H80a16 16 0 0 0-16 16v16a16 16 0 0 0 16 16h544a16 16 0 0 0 16-16v-16a16 16 0 0 0-16-16zm-480 96H16a16 16 0 0 0-16 16v16a16 16 0 0 0 16 16h128a16 16 0 0 0 16-16v-16a16 16 0 0 0-16-16zm416 0H224a16 16 0 0 0-16 16v16a16 16 0 0 0 16 16h336a16 16 0 0 0 16-16v-16a16 16 0 0 0-16-16zM144 288h156c22.5 19.7 51.6 32 84 32a127 127 0 0 0 83.9-32h60a112 112 0 1 0 0-224c-18 0-34.7 4.6-49.7 12C454 31 406.8 0 352 0a143 143 0 0 0-104 44.8A143 143 0 0 0 144 0a144 144 0 1 0 0 288z"/></svg>